# xmcd CD database file
#
# Track frame offsets:
#	150
#	13662
#	25470
#	38615
#	53110
#	67625
#	81393
#	96078
#	110805
#	123618
#	138360
#	153010
#	168042
#	182039
#	195317
#	210645
#	223033
#	237858
#	252383
#	264955
#	279682
#	292664
#	307259
#
# Disc length: 4287 seconds
#
# Revision: 0
# Processed by: cddbd v1.5.2PL0 Copyright (c) Steve Scherf et al.
# Submitted via: CDex 1.51
#
DISCID=4110bd17
DTITLE=Billie Holiday - Complete Decca Recordings 1944-1950 [CD2, DC edit)
DYEAR=1900
DGENRE=Jazz
TTITLE0=08-Big Stuff (Second Version)
TTITLE1=09-You Better Go Now
TTITLE2=04-That Ole Devil Called Love
TTITLE3=25-Deep Song
TTITLE4=05-Girls Were Made To Take Care Of Boys
TTITLE5=21-The Blues Are Brewin'
TTITLE6=11-Baby Get Lost
TTITLE7=12-Keeps On A- Rainin'
TTITLE8=13-Them There Eyes
TTITLE9=14-Do Your Duty
TTITLE10=16-You Can't Lose A Broken Heart w_ Louis Armstrong
TTITLE11=17-My Sweet Hunk O' Trash w_ Louis Armstrong
TTITLE12=03-No More (Alternate)
TTITLE13=05-Don't Explain (First Version)
TTITLE14=12-No Good Man (Previously Unissued Alternate)
TTITLE15=15-Gimme A Pigfoot (And A Bottle Of Beer)
TTITLE16=09-'tain't Nobody's Business If I Do (Previously Unissued Alternative)
TTITLE17=17-Baby, I Don't Cry Over You (Previously Unissued Alternate)
TTITLE18=15-Big Stuff (Previously Unissued Third Version)
TTITLE19=19-I'll Look Around (Previously Unissued Alternate)
TTITLE20=22-Guilty (Previously Unissued Alternate)
TTITLE21=02-Solitude (Previously Unissued Alternative)
TTITLE22=07-My Man (Mon Homme) (Previously Unissued Alternative)
EXTD=
EXTT0=
EXTT1=
EXTT2=
EXTT3=
EXTT4=
EXTT5=
EXTT6=
EXTT7=
EXTT8=
EXTT9=
EXTT10=
EXTT11=
EXTT12=
EXTT13=
EXTT14=
EXTT15=
EXTT16=
EXTT17=
EXTT18=
EXTT19=
EXTT20=
EXTT21=
EXTT22=
PLAYORDER=
